<?xml version="1.0" standalone="no"?>
<!DOCTYPE svg PUBLIC "-//W3C//DTD SVG 1.1//EN" "http://www.w3.org/Graphics/SVG/1.1/DTD/svg11.dtd" >
<svg xmlns="http://www.w3.org/2000/svg">
<metadata>
This is a custom SVG webfont generated by Font Squirrel.
Copyright   : Copyright c 2005 by Frantisek Storm wwwstormtypecom All rights reserved
Designer    : Frantisek Storm
Foundry     : Frantisek Storm wwwstormtypecom
Foundry URL : wwwstormtypecom
</metadata>
<defs>
<font id="EtelkaLightProBold" horiz-adv-x="1282" >
<font-face units-per-em="2048" ascent="1638" descent="-410" />
<missing-glyph horiz-adv-x="544" />
<glyph unicode=" "  horiz-adv-x="544" />
<glyph unicode="&#x09;" horiz-adv-x="544" />
<glyph unicode="&#xa0;" horiz-adv-x="544" />
<glyph unicode="!" horiz-adv-x="679" d="M180 150q0 90 33 116.5t127 26.5q96 0 130 -26.5t34 -116.5q0 -98 -34 -129t-130 -31q-92 0 -126 31t-34 129zM182 1427h314l-64 -970h-186z" />
<glyph unicode="&#x22;" horiz-adv-x="757" d="M92 1427h230l-39 -491h-168zM442 1427h224l-39 -491h-166z" />
<glyph unicode="#" horiz-adv-x="1458" d="M51 362l15 203h260l20 326h-264l14 205h264l21 331h237l-22 -331h283l22 331h236l-21 -331h281l-15 -205h-280l-21 -326h285l-14 -203h-283l-25 -362h-235l22 362h-282l-23 -362h-237l24 362h-262zM561 565h283l22 326h-282z" />
<glyph unicode="$" horiz-adv-x="1273" d="M127 971q0 197 103.5 299t314.5 127v293h180v-283q227 -4 387 -55l-59 -226q-106 43 -328 48v-351q211 -29 314.5 -124t103.5 -269q0 -197 -102.5 -294t-315.5 -120v-297h-180v291q-244 4 -400 53l60 228q119 -41 340 -49v368q-209 25 -313.5 109t-104.5 252zM379 999 q0 -70 35 -103.5t131 -47.5v317q-166 -27 -166 -166zM725 250q84 14 125 53t41 112.5t-35 111.5t-131 57v-334z" />
<glyph unicode="%" horiz-adv-x="1964" d="M72 1006q0 264 84 360t288.5 96t288.5 -96t84 -360q0 -268 -85 -371t-287.5 -103t-287.5 103t-85 371zM295 1003.5q0 -174.5 31.5 -231.5t117.5 -57q88 0 118 56t30 233q0 174 -30 226t-118 52t-118.5 -52t-30.5 -226.5zM420 0l876 1427h240l-879 -1427h-237zM1147 444 q0 262 84 358.5t288.5 96.5t288.5 -96t84 -359q0 -268 -85 -370.5t-287.5 -102.5t-287.5 102.5t-85 370.5zM1370 442q0 -176 32 -233t118 -57q88 0 117.5 57t29.5 233q0 174 -29.5 225.5t-117.5 51.5t-119 -51.5t-31 -225.5z" />
<glyph unicode="&#x26;" horiz-adv-x="1630" d="M102 373q0 352 383 368q-176 14 -232 96.5t-56 243.5q0 197 109.5 289t385.5 92q274 0 385 -84t111 -274q0 -154 -73 -240t-255 -100q143 -12 342 -258q84 139 84 305h273q0 -264 -195 -496q59 -78 221 -315h-307q-49 82 -100 154q-129 -96 -251 -139.5t-286 -43.5 q-297 0 -418 88.5t-121 313.5zM389 412q0 -125 53.5 -172t198.5 -47q129 0 216 31.5t181 111.5q-115 156 -207 231.5t-178 75.5q-137 0 -200.5 -54t-63.5 -177zM469 1055q0 -109 48 -155t163 -46q119 0 177 46t58 153q0 104 -50 144t-173 40t-173 -39t-50 -143z" />
<glyph unicode="'" horiz-adv-x="413" d="M92 1427h230l-39 -491h-168z" />
<glyph unicode="(" horiz-adv-x="620" d="M139 510q0 858 451 1059l117 -191q-299 -143 -299 -868t299 -868l-117 -191q-451 201 -451 1059z" />
<glyph unicode=")" horiz-adv-x="620" d="M-88 -358q299 143 299 868t-299 868l119 191q451 -201 450.5 -1059t-450.5 -1059z" />
<glyph unicode="*" horiz-adv-x="1011" d="M61 981v205h265l-133 231l182 103l131 -230l131 230l182 -103l-135 -231h266v-205h-266l133 -231l-180 -101l-131 225l-131 -225l-182 103l133 229h-265z" />
<glyph unicode="+" horiz-adv-x="1191" d="M98 621v241h375v377h244v-377h377v-241h-377v-377h-244v377h-375z" />
<glyph unicode="," horiz-adv-x="583" d="M20 -326l160 537h303l-235 -537h-228z" />
<glyph unicode="-" horiz-adv-x="622" d="M59 455v241h504v-241h-504z" />
<glyph unicode="." horiz-adv-x="583" d="M131 150q0 90 32 116.5t126 26.5q98 0 131 -26.5t33 -116.5q0 -98 -34 -129t-130 -31q-92 0 -125 31t-33 129z" />
<glyph unicode="/" horiz-adv-x="956" d="M31 0l729 1427h274l-729 -1427h-274z" />
<glyph unicode="0" d="M104 733q0 283 62.5 445.5t175.5 223t299 60.5t299 -60.5t175.5 -223t62.5 -445.5q0 -289 -61.5 -458t-175.5 -236.5t-300 -67.5q-279 0 -408 169t-129 593zM375 733q0 -219 24.5 -327.5t78.5 -149.5t163 -41q111 0 165 41t78.5 149.5t24.5 327.5q0 217 -24.5 320.5 t-77.5 136.5t-166 33t-165 -33t-76.5 -136.5t-24.5 -320.5z" />
<glyph unicode="1" d="M180 1223l660 264v-1487h-265v1139l-319 -138z" />
<glyph unicode="2" d="M96 0v217q195 147 303.5 232.5t204.5 168t135 124.5t69 95.5t35 88.5t5 94q0 115 -58.5 157t-205.5 42q-223 0 -375 -56l-57 234q211 66 454 65q279 0 404 -91t125 -329q0 -115 -21.5 -192.5t-98.5 -170.5t-201 -190.5t-351 -255.5h670v-233h-1037z" />
<glyph unicode="3" d="M102 23l52 233q145 -41 364 -41q201 0 267.5 44t66.5 163q0 121 -57.5 167t-196.5 46h-203v229h197q133 0 186 40t53 143q0 100 -61 137t-246 37q-213 0 -358 -45l-53 233q246 53 462 53q301 0 421 -84t120 -280q0 -158 -63.5 -242t-241.5 -100q190 -8 262 -101.5 t72 -269.5q0 -229 -132 -321.5t-442 -92.5q-240 1 -469 52z" />
<glyph unicode="4" horiz-adv-x="1273" d="M35 367v84q336 602 610 976h361v-837h190v-223h-190v-367h-258v367h-713zM362 590h386v604q-189 -248 -386 -604z" />
<glyph unicode="5" d="M131 23l53 233q135 -41 351 -41q195 0 257 42t62 169q0 137 -57.5 183t-249.5 46q-201 0 -350 -28v800h884v-233h-628v-317q106 8 170 8q297 0 410.5 -100.5t113.5 -344.5q0 -268 -125 -368.5t-436 -100.5q-242 1 -455 52z" />
<glyph unicode="6" d="M111 725q0 219 34.5 361.5t115.5 226.5t197.5 116.5t297.5 32.5q209 0 395 -55l-59 -238q-125 47 -336 48q-180 0 -265 -72t-92 -283q129 23 271 23q297 0 412.5 -100.5t115.5 -344.5q0 -268 -118.5 -368.5t-417.5 -100.5q-309 0 -430 161t-121 593zM395 635 q4 -254 63.5 -337t203.5 -83q152 0 202.5 45t50.5 166q0 127 -51 178t-205 51q-129 0 -264 -20z" />
<glyph unicode="7" d="M137 1194v233h1096v-81q-141 -225 -329.5 -636t-289.5 -710h-305q121 330 281 673t284 521h-737z" />
<glyph unicode="8" d="M104 385q0 176 71 269.5t263 101.5q-178 16 -240.5 100t-62.5 242q0 195 108.5 279.5t397.5 84.5t397.5 -85t108.5 -279q0 -158 -62.5 -242t-240.5 -100q193 -8 263.5 -101.5t70.5 -269.5q0 -227 -121 -320.5t-416 -93.5q-293 0 -415 93.5t-122 320.5zM387 412 q0 -125 54.5 -172t199.5 -47t200.5 48t55.5 171q0 125 -57.5 178t-198.5 53t-197.5 -53t-56.5 -178zM408 1055q0 -109 54 -155t179 -46q123 0 177 46t54 155q0 104 -51 143t-180 39q-131 0 -182 -39t-51 -143z" />
<glyph unicode="9" d="M104 979q0 270 120 376.5t417 106.5q322 0 433.5 -102.5t111.5 -390.5q0 -281 -133 -511.5t-367 -457.5h-336q342 324 461 559q-82 -10 -178 -10q-299 0 -414 94t-115 336zM387 991q0 -133 51 -173t224 -40q127 0 221 15q18 72 18 147q0 178 -52 229.5t-208 51.5 q-152 0 -203 -51.5t-51 -178.5z" />
<glyph unicode=":" horiz-adv-x="583" d="M131 150q0 90 32 116.5t126 26.5q98 0 131 -26.5t33 -116.5q0 -98 -34 -129t-130 -31q-92 0 -125 31t-33 129zM131 909q0 92 32 119t126 27q98 0 131 -27t33 -119q0 -98 -34 -127.5t-130 -29.5q-92 0 -125 29.5t-33 127.5z" />
<glyph unicode=";" horiz-adv-x="583" d="M20 -326l160 537h303l-235 -537h-228zM131 909q0 92 32 119t126 27q98 0 131 -27t33 -119q0 -98 -34 -127.5t-130 -29.5q-92 0 -125 29.5t-33 127.5z" />
<glyph unicode="&#x3c;" horiz-adv-x="1191" d="M172 676v125l746 581l137 -180l-549 -461l549 -465l-133 -184z" />
<glyph unicode="=" horiz-adv-x="1191" d="M98 344v242h996v-242h-996zM98 891v242h996v-242h-996z" />
<glyph unicode="&#x3e;" horiz-adv-x="1191" d="M174 274l549 461l-549 467l133 182l748 -583v-125l-746 -582z" />
<glyph unicode="?" horiz-adv-x="1009" d="M55 1411q164 51 371 51q281 0 405.5 -101t124.5 -312q0 -164 -85 -305.5t-257 -303.5h-266q162 172 232.5 306.5t70.5 291.5q0 90 -55 134.5t-193 44.5q-184 0 -292 -43zM324 150q0 90 31.5 116.5t125.5 26.5q98 0 131 -26.5t33 -116.5q0 -98 -33.5 -128t-130.5 -30 q-92 0 -124.5 30t-32.5 128z" />
<glyph unicode="@" horiz-adv-x="1923" d="M111 545q0 219 49 367.5t152.5 230.5t235.5 115.5t322 33.5q152 0 242 -20.5t157.5 -82t95.5 -173t28 -293.5q0 -174 -20.5 -275.5t-78 -160t-136.5 -75.5t-220 -17q-240 0 -329 71.5t-89 274.5q0 207 83 273.5t298 66.5q160 0 256 -21q-2 129 -59.5 175t-218.5 46 q-164 0 -257.5 -18.5t-160 -76.5t-90 -160.5t-23.5 -276.5q0 -176 25.5 -280.5t99.5 -168t185.5 -85t302.5 -21.5q367 0 494.5 127t127.5 495q0 264 -45 383h231q41 -139 41 -391q0 -467 -195.5 -647t-651.5 -180q-233 0 -387 34.5t-262.5 122t-155.5 235t-47 372.5z M768 549q0 -96 40 -128t159 -32q109 0 149.5 41t40.5 160v96q-74 14 -192 14q-117 0 -157 -27.5t-40 -123.5z" />
<glyph unicode="A" horiz-adv-x="1396" d="M-18 0q219 698 516 1427h424q262 -825 514 -1427h-299q-90 225 -138 356h-624q-47 -145 -111 -356h-282zM446 588h476q-111 313 -199 610h-55q-101 -260 -222 -610z" />
<glyph unicode="B" horiz-adv-x="1458" d="M180 0v1427h768q201 0 275.5 -85t74.5 -257q0 -158 -59 -235.5t-238 -93.5q190 -8 259 -98.5t69 -266.5q0 -391 -368 -391h-781zM451 227h450q137 0 137 201q0 211 -145 211h-442v-412zM451 858h438q123 0 123 172q0 88 -28 128t-95 40h-438v-340z" />
<glyph unicode="C" horiz-adv-x="1212" d="M109 727q0 217 39.5 360.5t126.5 226.5t206 115.5t297 32.5q217 0 410 -53l-60 -238q-125 45 -303 46q-129 0 -200.5 -15.5t-128 -67t-78 -148.5t-21.5 -261t21.5 -263.5t77 -153.5t129 -71.5t200.5 -17.5q178 0 303 45l60 -241q-184 -51 -410 -52q-236 0 -377 66.5 t-216.5 234.5t-75.5 455z" />
<glyph unicode="D" horiz-adv-x="1507" d="M180 0v1427h545q176 0 297 -32.5t208 -112.5t128 -218t41 -345q0 -401 -161 -560t-513 -159h-545zM451 233h247q166 0 250 37t123 140.5t39 306.5q0 160 -18.5 252t-70.5 143t-124 66.5t-199 15.5h-247v-961z" />
<glyph unicode="E" horiz-adv-x="1269" d="M180 0v1427h1037v-233h-766v-330h546v-231h-546v-400h766v-233h-1037z" />
<glyph unicode="F" horiz-adv-x="1196" d="M180 0v1427h1016v-233h-745v-403h546v-232h-546v-559h-271z" />
<glyph unicode="G" horiz-adv-x="1433" d="M109 727q0 217 44 361.5t137 226.5t219 114.5t308 32.5q238 0 430 -53l-55 -235q-123 43 -354 43q-106 0 -171 -9.5t-122.5 -37t-86 -83t-45 -142.5t-16.5 -220q0 -164 21.5 -264.5t77 -154.5t130 -71.5t199.5 -17.5q98 0 185 21v368h-312v228h588v-801 q-195 -61 -508 -62q-236 0 -377 66.5t-216.5 234.5t-75.5 455z" />
<glyph unicode="H" horiz-adv-x="1507" d="M180 0v1427h271v-544h610v544h266v-1427h-266v633h-610v-633h-271z" />
<glyph unicode="I" horiz-adv-x="630" d="M180 0v1427h271v-1427h-271z" />
<glyph unicode="J" horiz-adv-x="944" d="M12 27l54 241q109 -43 243 -43q186 0 187 203v999h272l2 -1034q0 -422 -434 -422q-172 1 -324 56z" />
<glyph unicode="K" horiz-adv-x="1355" d="M180 0v1427h271v-1427h-271zM453 754q76 53 229.5 235t327.5 438h327q-178 -252 -325.5 -427t-212.5 -228q68 -45 230.5 -250t352.5 -522h-331q-199 328 -363.5 526.5t-234.5 227.5z" />
<glyph unicode="L" horiz-adv-x="1128" d="M180 0v1427h271v-1191h673v-236h-944z" />
<glyph unicode="M" horiz-adv-x="1875" d="M180 0v1427h369q205 -422 401 -913q166 440 396 913h350v-1427h-264v1063q-168 -369 -398 -932h-211q-266 676 -383 932v-1063h-260z" />
<glyph unicode="N" horiz-adv-x="1585" d="M180 0v1427h355q309 -487 600 -1030v1030h268v-1427h-330q-293 543 -629 1075v-1075h-264z" />
<glyph unicode="O" horiz-adv-x="1576" d="M109 727q0 215 40.5 359.5t130 226.5t210 115.5t299 33.5t299 -33.5t208.5 -115.5t129 -226.5t41 -359.5q0 -219 -41 -366.5t-129 -232.5t-209.5 -121t-298.5 -36q-178 0 -299.5 36t-210 121t-129 232.5t-40.5 366.5zM397 723q0 -133 11.5 -219t36 -145.5t72.5 -89 t110.5 -42t161 -12.5t161 12.5t110.5 42t72.5 89t36 145.5t11.5 219q0 166 -15.5 260t-63.5 148.5t-118 71t-194.5 16.5t-194.5 -16.5t-118 -71t-63.5 -148.5t-15.5 -260z" />
<glyph unicode="P" horiz-adv-x="1378" d="M180 0v1427h744q397 0 397 -489q0 -201 -98.5 -334t-292.5 -133h-479v-471h-271zM451 696h397q176 0 176 244q0 258 -170 258h-403v-502z" />
<glyph unicode="Q" horiz-adv-x="1603" d="M123 727q0 215 41 359.5t129 226.5t209 115.5t299 33.5t299 -33.5t210 -115.5t130 -226.5t41 -359.5q0 -332 -98.5 -494.5t-301.5 -201.5q145 -39 424 -424h-315q-113 172 -216.5 264t-176.5 100q-176 0 -297 36t-208 122t-128 233.5t-41 364.5zM412 723q0 -166 15 -261 t62.5 -152.5t117 -76t194.5 -18.5q100 0 162.5 12.5t110.5 42t72.5 89t36 145.5t11.5 219q0 219 -35 322.5t-112.5 138.5t-245.5 35q-100 0 -161.5 -10.5t-110 -39t-72 -86t-34.5 -142.5t-11 -218z" />
<glyph unicode="R" horiz-adv-x="1445" d="M180 0v1427h744q397 0 397 -415q0 -377 -375 -391q74 -27 181.5 -167.5t295.5 -453.5h-333q-164 289 -271.5 417t-177.5 128h-190v-545h-271zM451 768h403q166 0 166 209q0 221 -160 221h-409v-430z" />
<glyph unicode="S" horiz-adv-x="1273" d="M100 997q0 246 150.5 355.5t458.5 109.5q242 0 436 -63l-60 -234q-143 51 -376 52q-174 0 -248 -42t-74 -145q0 -86 62.5 -125t250.5 -57q252 -27 366 -127t114 -301q0 -246 -148.5 -347.5t-468.5 -101.5q-258 0 -444 64l59 233q162 -51 381 -51q176 0 253 41t77 148 q0 88 -66.5 135t-259.5 63q-244 25 -353.5 112.5t-109.5 280.5z" />
<glyph unicode="T" horiz-adv-x="1247" d="M6 1194v233h1235v-233h-481v-1194h-273v1194h-481z" />
<glyph unicode="U" horiz-adv-x="1519" d="M160 432v995h272v-954q0 -143 73 -198.5t255 -55.5q180 0 255 54.5t75 199.5v954h268l2 -995q0 -264 -148.5 -362.5t-451.5 -98.5t-451.5 98.5t-148.5 362.5z" />
<glyph unicode="V" horiz-adv-x="1327" d="M-39 1427h299q238 -573 408 -1153q197 483 393 1153h285q-217 -709 -523 -1427h-346q-262 849 -516 1427z" />
<glyph unicode="W" horiz-adv-x="1996" d="M-4 1427h295q166 -498 307 -1091q209 690 287 1091h250q217 -778 280 -1091q170 528 297 1091h279q-178 -731 -414 -1427h-344q-80 424 -223 979q-78 -379 -262 -979h-342q-228 915 -410 1427z" />
<glyph unicode="X" horiz-adv-x="1380" d="M-8 0q209 260 545 721q-332 446 -537 706h346q152 -195 359 -471q199 276 327 471h332q-215 -315 -494 -700q367 -508 516 -727h-335q-201 289 -349 494q-260 -342 -378 -494h-332z" />
<glyph unicode="Y" horiz-adv-x="1306" d="M-78 1427h352q182 -227 398 -544q229 307 377 544h327q-268 -403 -575 -811v-616h-271v614q-362 514 -608 813z" />
<glyph unicode="Z" horiz-adv-x="1271" d="M35 0v66q377 512 782 1128h-737v233h1157v-61q-164 -264 -395.5 -600t-386.5 -533h768v-233h-1188z" />
<glyph unicode="[" horiz-adv-x="698" d="M184 -532v2078h553v-221h-288v-1638h288v-219h-553z" />
<glyph unicode="\" horiz-adv-x="956" d="M-59 1427h274l729 -1427h-274z" />
<glyph unicode="]" horiz-adv-x="698" d="M-39 -313h289v1638h-289v221h553v-2078h-553v219z" />
<glyph unicode="^" horiz-adv-x="1087" d="M27 606l393 821h244l397 -821h-275l-247 545l-244 -545h-268z" />
<glyph unicode="_" horiz-adv-x="962" d="M59 -98h844v-242h-844v242z" />
<glyph unicode="`" horiz-adv-x="985" d="M190 1427h271l250 -264h-226z" />
<glyph unicode="a" horiz-adv-x="1146" d="M100 319q0 205 101.5 274t308.5 69q121 0 258 -29q0 139 -49 183t-211 44q-172 0 -315 -51l-48 209q209 55 416 55q240 0 345.5 -89t105.5 -316v-615q-209 -82 -471 -82q-250 0 -345.5 72.5t-95.5 275.5zM367 330q0 -104 36.5 -134t155.5 -30q109 0 209 35v260 q-86 18 -207 18q-115 0 -154.5 -26.5t-39.5 -122.5z" />
<glyph unicode="b" horiz-adv-x="1204" d="M141 47v1432h254v-475q115 70 271 69q225 0 328.5 -119.5t103.5 -425.5q0 -313 -117 -435t-383.5 -122t-456.5 76zM395 213q86 -33 203 -33q141 0 190.5 64.5t49.5 279.5q0 190 -50.5 258t-185.5 68q-88 0 -147.5 -26.5t-59.5 -71.5v-539z" />
<glyph unicode="c" horiz-adv-x="962" d="M104 526q0 303 131.5 425t385.5 122q184 0 317 -49l-57 -217q-121 45 -242 45q-100 0 -154.5 -21.5t-86 -94t-31.5 -214.5q0 -197 62.5 -263t209.5 -66q121 0 242 49l57 -217q-133 -53 -317 -54q-254 0 -385.5 125t-131.5 430z" />
<glyph unicode="d" horiz-adv-x="1204" d="M104 522q0 301 115 426t338 125q143 0 250 -59v465h254v-1432q-188 -76 -455 -76q-268 0 -385 120t-117 431zM367 526q0 -207 50 -272.5t189 -65.5q113 0 201 31v539q0 45 -58.5 72.5t-146.5 27.5q-135 0 -185 -69.5t-50 -262.5z" />
<glyph unicode="e" horiz-adv-x="1130" d="M104 526q0 299 122 423t364 124q131 0 214 -25.5t142.5 -94t81.5 -189.5q18 -95 18 -232q0 -37 -2 -77h-673q2 -160 63.5 -214.5t206.5 -54.5q150 0 293 43l41 -200q-172 -57 -365 -58q-244 0 -375 126t-131 429zM373 649h438q-6 135 -50 179t-157 44q-121 0 -170 -47 t-61 -176z" />
<glyph unicode="f" horiz-adv-x="770" d="M10 821v221h174v70q0 209 101.5 290t277.5 81q152 0 287 -45l-57 -201q-86 29 -189 29q-82 0 -124 -37t-42 -131v-56h338v-221h-338v-821h-254v821h-174z" />
<glyph unicode="g" horiz-adv-x="1204" d="M104 518q0 311 118 433t384 122q268 0 455 -78v-915q0 -150 -39 -250t-117 -152.5t-173 -74t-228 -21.5q-207 0 -367 62l51 204q160 -51 313.5 -51t229.5 54.5t76 191.5q-111 -68 -264 -68q-227 0 -333 119t-106 424zM367 520q0 -193 49 -259t184 -66q88 0 147.5 26.5 t59.5 71.5v536q-92 35 -201 35q-141 0 -190 -64.5t-49 -279.5z" />
<glyph unicode="h" horiz-adv-x="1193" d="M141 0v1479h254v-478q139 72 287 72q131 0 208 -36t123 -141t46 -296v-600h-254v580q0 137 -46 200.5t-163 63.5q-84 0 -142.5 -24.5t-58.5 -67.5v-752h-254z" />
<glyph unicode="i" horiz-adv-x="536" d="M123 1352q0 78 29.5 101.5t117.5 23.5q86 0 116 -23.5t30 -101.5q0 -88 -30 -115t-116 -27q-88 0 -117.5 27t-29.5 115zM141 0v1042h254v-1042h-254z" />
<glyph unicode="j" horiz-adv-x="536" d="M-33 -205q90 0 132 38t42 138v1071h254v-1065q0 -223 -102.5 -308t-325.5 -85v211zM123 1352q0 78 29.5 101.5t117.5 23.5q86 0 116 -23.5t30 -101.5q0 -88 -30 -115t-116 -27q-88 0 -117.5 27t-29.5 115z" />
<glyph unicode="k" horiz-adv-x="1128" d="M141 0v1479h254v-1479h-254zM395 551q100 82 404 491h301q-285 -385 -400 -473q45 -27 160 -176t270 -393h-299q-356 516 -436 551z" />
<glyph unicode="l" horiz-adv-x="548" d="M141 283v1196h254v-1186q0 -139 80 -246l-223 -96q-111 127 -111 332z" />
<glyph unicode="m" horiz-adv-x="1804" d="M141 0v983q233 90 482 90q176 0 266 -69q193 70 371 69q223 0 316 -107.5t93 -383.5v-582h-254v555q0 174 -42 231.5t-167 57.5q-109 0 -202 -29q29 -96 28 -233v-582h-254v555q0 174 -42 231.5t-167 57.5q-86 0 -174 -25v-819h-254z" />
<glyph unicode="n" horiz-adv-x="1193" d="M141 0v983q233 90 494 90q225 0 324.5 -108.5t99.5 -382.5v-582h-254v555q0 174 -44 231.5t-179 57.5q-94 0 -187 -25v-819h-254z" />
<glyph unicode="o" horiz-adv-x="1204" d="M104 526q0 307 119 427t377 120q262 0 381 -119.5t119 -427.5q0 -311 -119 -433t-381 -122q-260 0 -378 122t-118 433zM367 522q0 -211 48 -278.5t185 -67.5q139 0 188.5 67.5t49.5 278.5q0 150 -22.5 223.5t-71 98t-144.5 24.5q-139 0 -186 -64.5t-47 -281.5z" />
<glyph unicode="p" horiz-adv-x="1204" d="M141 -393v1388q186 78 457 78q266 0 383 -119.5t117 -431.5q0 -303 -115 -427t-338 -124q-131 0 -250 60v-424h-254zM395 287q0 -45 59.5 -73t145.5 -28q135 0 186.5 70t51.5 260q0 209 -50.5 273.5t-189.5 64.5q-123 0 -203 -31v-536z" />
<glyph unicode="q" horiz-adv-x="1204" d="M104 518q0 311 118 433t384 122q268 0 455 -78v-1388h-254v434q-115 -70 -270 -70q-225 0 -329 120t-104 427zM367 520q0 -193 49 -259t184 -66q88 0 147.5 26.5t59.5 71.5v536q-92 35 -201 35q-141 0 -190 -64.5t-49 -279.5z" />
<glyph unicode="r" horiz-adv-x="776" d="M141 0v1042h254v-77q70 109 267 108q51 0 106 -6v-242q-63 14 -133 15q-100 0 -170 -31t-70 -86v-723h-254z" />
<glyph unicode="s" horiz-adv-x="1005" d="M92 727q0 190 116 268t331 78q178 0 350 -57l-55 -199q-152 49 -304 49q-104 0 -146 -22.5t-42 -98.5q0 -53 44 -76.5t171 -35.5q195 -20 279 -90t84 -224q0 -193 -115 -270.5t-332 -77.5t-373 56l54 200q139 -49 309 -49q113 0 159 24.5t46 102.5q0 57 -46.5 85 t-177.5 40q-182 14 -267 78.5t-85 218.5z" />
<glyph unicode="t" horiz-adv-x="849" d="M20 821v221h175v177l254 104v-281h346v-221h-346v-448q0 -100 33.5 -141.5t123.5 -41.5q88 0 178 29l45 -201q-131 -47 -286 -47q-186 0 -267 79t-81 300v471h-175z" />
<glyph unicode="u" horiz-adv-x="1193" d="M135 461v581h254v-555q0 -174 44 -231t177 -57q100 0 189 26v817h254v-983q-238 -90 -494 -90q-225 0 -324.5 109t-99.5 383z" />
<glyph unicode="v" horiz-adv-x="1046" d="M0 1042h264q137 -350 258 -786q172 455 258 786h258q-141 -475 -374 -1042h-314q-172 610 -350 1042z" />
<glyph unicode="w" horiz-adv-x="1699" d="M0 1042h268q133 -356 238 -782q53 154 122.5 396.5t102.5 385.5h248q115 -342 211 -782q164 451 242 782h258q-152 -541 -357 -1042h-315q-76 393 -168 698q-78 -348 -201 -698h-313q-160 575 -336 1042z" />
<glyph unicode="x" horiz-adv-x="1067" d="M12 0q158 184 406 520q-231 322 -404 522h303q109 -135 240 -319q82 113 215 319h283q-154 -231 -359 -514q201 -283 361 -528h-287q-76 125 -219 330q-131 -178 -256 -330h-283z" />
<glyph unicode="y" horiz-adv-x="1046" d="M0 1042h264q139 -348 258 -790q174 463 258 790h258q-147 -502 -395 -1085q-86 -205 -162 -350h-282q76 135 170 342q-170 612 -369 1093z" />
<glyph unicode="z" horiz-adv-x="1017" d="M37 0v51q143 180 303 408.5t242 361.5h-510v221h899v-51q-109 -174 -269.5 -404.5t-267.5 -365.5h522v-221h-919z" />
<glyph unicode="{" horiz-adv-x="692" d="M63 403v211q225 0 226 412q0 432 336 545l120 -191q-111 -39 -160.5 -130t-49.5 -306t-55.5 -314.5t-125.5 -119.5q70 -20 125.5 -121.5t55.5 -316.5q0 -217 49 -306.5t161 -130.5l-120 -188q-336 113 -336 547q0 412 -226 412v-3z" />
<glyph unicode="|" horiz-adv-x="759" d="M246 -524v2070h268v-2070h-268z" />
<glyph unicode="}" horiz-adv-x="692" d="M-53 -360q111 39 161 130t50 306q0 213 55 313t125 121q-70 20 -125 121.5t-55 316.5t-49.5 305t-161.5 129q20 31 60 94.5t61 94.5q336 -113 335 -545q0 -412 226 -412v-53v-155q-225 0 -226 -412q0 -432 -335 -545q-20 31 -60.5 94.5t-60.5 96.5z" />
<glyph unicode="~" horiz-adv-x="1191" d="M78 741q117 199 280 199q96 0 250 -85t207 -85q47 0 79 30.5t60 110.5l164 -129q-39 -104 -121 -169.5t-192 -65.5q-82 0 -235.5 88t-213.5 88q-78 0 -131 -123z" />
<glyph unicode="&#xa2;" horiz-adv-x="937" d="M104 784q0 264 101.5 389t294.5 148v217h200v-213q129 -10 220 -43l-58 -201q-63 29 -162 33v-672q96 6 162 37l58 -196q-84 -37 -220 -50v-247h-200v247q-195 27 -295.5 155t-100.5 396zM348 778q0 -143 37 -213.5t115 -93.5v616q-80 -20 -116 -89.5t-36 -219.5z" />
<glyph unicode="&#xa3;" horiz-adv-x="1249" d="M74 600v215h121v162q0 244 138 363.5t433 119.5q252 0 436 -63l-59 -232q-147 49 -377 49q-168 0 -234.5 -51t-66.5 -170v-178h403v-215h-403v-367h694v-233h-964v600h-121z" />
<glyph unicode="&#xa5;" horiz-adv-x="1306" d="M-78 1427h352q182 -227 398 -544q229 307 377 544h327q-215 -326 -471 -669h246v-189h-350v-159h350v-189h-350v-221h-271v221h-364v189h364v159h-364v189h262q-297 413 -506 669z" />
<glyph unicode="&#xa8;" horiz-adv-x="946" d="M123 1282q0 72 24.5 92.5t96 20.5t97.5 -20.5t26 -92.5q0 -78 -26 -102.5t-97.5 -24.5t-96 23.5t-24.5 103.5zM559 1282q0 72 24.5 92.5t98.5 20.5q72 0 96.5 -20.5t24.5 -92.5q0 -78 -25.5 -102.5t-95.5 -24.5q-74 0 -98.5 23.5t-24.5 103.5z" />
<glyph unicode="&#xa9;" horiz-adv-x="1714" d="M123 727q0 215 45 359.5t141.5 226.5t226.5 115.5t320.5 33.5t321.5 -33.5t227 -115.5t141 -226.5t45 -359.5q0 -426 -176 -591t-559 -165q-190 0 -321.5 36t-226.5 121t-140 232.5t-45 366.5zM348 725q0 -180 24.5 -289.5t89 -172t155 -83t239.5 -20.5q152 0 242 20.5 t154.5 83t89 172t24.5 289.5t-24.5 286.5t-90 166t-153.5 78t-242 18.5q-152 0 -240 -18.5t-153.5 -78t-90 -166t-24.5 -286.5zM475 723q0 258 99.5 349t328.5 91q150 0 266 -39l-47 -184q-86 33 -206.5 33t-164.5 -47t-44 -205q0 -152 45 -203t163.5 -51t206.5 37l47 -182 q-121 -45 -266 -46q-229 0 -328.5 94.5t-99.5 352.5z" />
<glyph unicode="&#xab;" horiz-adv-x="1368" d="M55 639l553 571l146 -149l-361 -418l361 -426l-144 -154zM614 639l553 571l146 -149l-361 -418l361 -426l-144 -154z" />
<glyph unicode="&#xad;" horiz-adv-x="622" d="M59 455v241h504v-241h-504z" />
<glyph unicode="&#xae;" horiz-adv-x="1169" d="M96 954q0 287 115 396.5t373 109.5q260 0 374.5 -109.5t114.5 -396.5q0 -285 -115.5 -397.5t-373.5 -112.5t-373 112.5t-115 397.5zM266 954q0 -211 68.5 -283.5t249.5 -72.5q184 0 252.5 72.5t68.5 283.5q0 221 -66.5 289t-254.5 68q-184 0 -251 -68t-67 -289zM362 684 v545h334q74 0 110 -50.5t36 -129.5q0 -90 -35 -127t-105 -37q90 -43 125 -201h-174q-10 55 -39.5 105.5t-52.5 50.5h-39v-156h-160zM522 979h111q43 0 43 61q0 57 -43 58h-111v-119z" />
<glyph unicode="&#xaf;" horiz-adv-x="1064" d="M252 1180v184h569v-184h-569z" />
<glyph unicode="&#x2c9;" horiz-adv-x="1064" d="M252 1180v184h569v-184h-569z" />
<glyph unicode="&#xb4;" horiz-adv-x="985" d="M190 1163l248 264h273l-297 -264h-224z" />
<glyph unicode="&#xb8;" horiz-adv-x="1312" d="M520 -383l45 111q49 -25 146 -25q47 0 65.5 11.5t18.5 41.5q0 39 -40 49.5t-153 4.5l74 190h100v-86q123 0 174 -35t51 -125q0 -96 -62 -133t-218 -37q-127 0 -201 33z" />
<glyph unicode="&#xbb;" horiz-adv-x="1368" d="M55 215l363 418l-363 428l144 151l557 -573l-553 -573zM614 215l363 418l-363 428l144 151l557 -573l-553 -573z" />
<glyph unicode="&#xc6;" horiz-adv-x="1984" d="M-295 0q492 752 1002 1427h1222v-233h-766v-330h455v-229h-455v-402h766v-233h-1034v356h-637q-129 -195 -229 -356h-324zM410 588h485v610h-57q-242 -334 -428 -610z" />
<glyph unicode="&#xe6;" horiz-adv-x="1777" d="M100 319q0 205 102.5 274t307.5 69q121 0 258 -29q0 139 -48 181t-212 42q-184 0 -315 -47l-48 209q209 55 416 55q262 0 346 -125q90 125 330 125q131 0 214 -25.5t142.5 -94t82 -189.5t16.5 -309h-674q2 -160 63.5 -214.5t206.5 -54.5q150 0 293 43l41 -200 q-172 -57 -365 -58q-197 0 -303 74q-154 -74 -413 -74q-250 0 -345.5 72.5t-95.5 275.5zM369 330q0 -100 34.5 -132t157.5 -32q152 0 244 49q-41 98 -41 246q-84 18 -201 18q-115 0 -154.5 -26.5t-39.5 -122.5zM1020 649h438q-6 135 -50 179t-157 44q-119 0 -169 -46 t-62 -177z" />
<glyph unicode="&#x2c6;" horiz-adv-x="1351" d="M322 1163l249 264h250l258 -264h-239l-146 156l-141 -156h-231z" />
<glyph unicode="&#x2d8;" horiz-adv-x="1073" d="M193 1427h174q0 -70 31.5 -94t103 -24t104.5 25.5t33 92.5h164q0 -281 -307 -280q-303 -1 -303 280z" />
<glyph unicode="&#x2da;" horiz-adv-x="1462" d="M492 1316.5q0 108.5 57 155t188 46.5q125 0 184.5 -46.5t59.5 -155t-58.5 -154.5t-185.5 -46t-186 46t-59 154.5zM635 1313q0 -47 21.5 -67.5t81 -20.5t81 20.5t21.5 67.5q0 49 -20.5 68.5t-82 19.5t-82 -19.5t-20.5 -68.5z" />
<glyph unicode="&#x2dc;" horiz-adv-x="1464" d="M291 1262q94 166 223 165q76 0 162 -54t129 -54q37 0 60.5 25.5t47.5 93.5l127 -103q-68 -190 -239 -190q-63 0 -152.5 54t-136.5 54q-63 0 -106 -104z" />
<glyph unicode="&#x2dd;" horiz-adv-x="1126" d="M334 1163l186 264h223l-235 -264h-174zM670 1163l186 264h223l-233 -264h-176z" />
<glyph unicode="&#x400;" horiz-adv-x="1269" d="M290 1849h271l250 -264h-226zM180 0v1427h1037v-233h-766v-330h546v-231h-546v-400h766v-233h-1037z" />
<glyph unicode="&#x401;" horiz-adv-x="1269" d="M180 0v1427h1037v-233h-766v-330h546v-231h-546v-400h766v-233h-1037zM346 1655q0 72 25.5 93t97.5 21t96.5 -21.5t24.5 -92.5q0 -78 -24.5 -101.5t-96.5 -23.5t-97.5 23.5t-25.5 101.5zM782 1655q0 72 24.5 93t98.5 21q72 0 96.5 -21.5t24.5 -92.5q0 -78 -24.5 -101.5 t-96.5 -23.5q-74 0 -98.5 23.5t-24.5 101.5z" />
<glyph unicode="&#x402;" horiz-adv-x="1544" d="M6 1194v233h1235v-233h-481v-274q135 72 287 71q102 0 169.5 -22.5t121 -85t77 -179t23.5 -298.5q0 -608 -326 -781l-178 174q55 31 90 64t72 97.5t55 173t18 263.5q0 160 -21.5 238t-63.5 102.5t-126 24.5q-80 0 -138 -23.5t-60 -62.5v-676h-273v1194h-481z" />
<glyph unicode="&#x403;" horiz-adv-x="1128" d="M180 0v1427h965v-233h-694v-1194h-271zM469 1530l264 264h281l-322 -264h-223z" />
<glyph unicode="&#x404;" horiz-adv-x="1261" d="M109 727q0 217 40.5 361.5t130 226.5t210 114.5t298.5 32.5q227 0 420 -53l-59 -238q-125 45 -313 46q-113 0 -180.5 -11.5t-125 -48.5t-86 -107.5t-38.5 -185.5h608v-229h-611q6 -131 33 -214t84.5 -127t129 -59.5t186.5 -15.5q188 0 313 45l59 -241q-184 -51 -420 -52 q-354 0 -516.5 167t-162.5 589z" />
<glyph unicode="&#x405;" horiz-adv-x="1273" d="M100 997q0 246 150.5 355.5t458.5 109.5q242 0 436 -63l-60 -234q-143 51 -376 52q-174 0 -248 -42t-74 -145q0 -86 62.5 -125t250.5 -57q252 -27 366 -127t114 -301q0 -246 -148.5 -347.5t-468.5 -101.5q-258 0 -444 64l59 233q162 -51 381 -51q176 0 253 41t77 148 q0 88 -66.5 135t-259.5 63q-244 25 -353.5 112.5t-109.5 280.5z" />
<glyph unicode="&#x406;" horiz-adv-x="630" d="M180 0v1427h271v-1427h-271z" />
<glyph unicode="&#x407;" horiz-adv-x="630" d="M-27 1655q0 72 26 93t97.5 21t96 -21.5t24.5 -92.5q0 -78 -24.5 -101.5t-96 -23.5t-97.5 23.5t-26 101.5zM180 0v1427h271v-1427h-271zM410 1655q0 72 24.5 93t97.5 21q72 0 96.5 -21.5t24.5 -92.5q0 -78 -24.5 -101.5t-96.5 -23.5q-74 0 -98 23.5t-24 101.5z" />
<glyph unicode="&#x408;" horiz-adv-x="944" d="M12 27l54 241q109 -43 243 -43q186 0 187 203v999h272l2 -1034q0 -422 -434 -422q-172 1 -324 56z" />
<glyph unicode="&#x409;" horiz-adv-x="2187" d="M63 0q262 797 289 1427h920v-512h457q199 0 290.5 -123.5t91.5 -332.5q0 -459 -370 -459h-740v1184h-401q-47 -596 -252 -1184h-285zM1272 227h393q154 0 154 232q0 238 -160 237h-387v-469z" />
<glyph unicode="&#x40a;" horiz-adv-x="2203" d="M180 0v1427h271v-518h569v518h268v-520h457q199 0 291 -122.5t92 -331.5q0 -453 -371 -453h-737v682h-569v-682h-271zM1288 227h393q80 0 117 55.5t37 170.5q0 229 -160 229h-387v-455z" />
<glyph unicode="&#x40b;" horiz-adv-x="1556" d="M6 1194v233h1235v-233h-481v-274q135 72 287 71q131 0 207.5 -35.5t122.5 -141t46 -296.5v-518h-254v498q0 158 -49 211t-162 53q-80 0 -138 -23.5t-60 -62.5v-676h-273v1194h-481z" />
<glyph unicode="&#x40c;" horiz-adv-x="1359" d="M180 0v1427h271v-688q104 100 258.5 287.5t300.5 400.5h327q-180 -254 -319 -421.5t-203 -219.5q59 -20 100 -42.5t97.5 -76t107.5 -133t115.5 -214t136.5 -320.5h-321q-100 268 -192.5 413.5t-182.5 199t-225 65.5v-678h-271zM567 1530l264 264h281l-324 -264h-221z" />
<glyph unicode="&#x40d;" horiz-adv-x="1585" d="M383 1849h271l250 -264h-226zM180 0v1427h266v-1077q377 606 631 1077h326v-1427h-264v1032q-313 -578 -604 -1032h-355z" />
<glyph unicode="&#x40e;" horiz-adv-x="1196" d="M-31 1427h322q209 -379 354 -772q231 471 336 772h305q-137 -350 -332.5 -744t-373.5 -683q-227 0 -340 -2q119 160 235 362q-86 233 -232.5 544.5t-273.5 522.5zM346 1784h174q0 -70 32 -94.5t105 -24.5q63 0 100.5 26.5t35.5 92.5h163q0 -281 -305 -281t-305 281z" />
<glyph unicode="&#x40f;" horiz-adv-x="1507" d="M182 0v1427h271v-1183h610v1183h266v-1427h-436l-43 -385h-180l-43 385h-445z" />
<glyph unicode="&#x410;" horiz-adv-x="1396" d="M-18 0q219 698 516 1427h424q262 -825 514 -1427h-299q-90 225 -138 356h-624q-47 -145 -111 -356h-282zM446 588h476q-111 313 -199 610h-55q-101 -260 -222 -610z" />
<glyph unicode="&#x411;" horiz-adv-x="1456" d="M180 0v1427h1028v-233h-757v-336h497q381 0 381 -434q0 -225 -94 -324.5t-274 -99.5h-781zM451 227h450q137 0 137 201q0 211 -145 211h-442v-412z" />
<glyph unicode="&#x412;" horiz-adv-x="1458" d="M180 0v1427h768q201 0 275.5 -85t74.5 -257q0 -158 -59 -235.5t-238 -93.5q190 -8 259 -98.5t69 -266.5q0 -391 -368 -391h-781zM451 227h450q137 0 137 201q0 211 -145 211h-442v-412zM451 858h438q123 0 123 172q0 88 -28 128t-95 40h-438v-340z" />
<glyph unicode="&#x413;" horiz-adv-x="1114" d="M180 0v1427h965v-233h-694v-1194h-271z" />
<glyph unicode="&#x414;" horiz-adv-x="1642" d="M8 244h225q186 524 213 1183h943v-1183h253l-43 -559h-237v315h-1071v-315h-238zM526 244h594v950h-426q-39 -555 -168 -950z" />
<glyph unicode="&#x415;" horiz-adv-x="1269" d="M180 0v1427h1037v-233h-766v-330h546v-231h-546v-400h766v-233h-1037z" />
<glyph unicode="&#x416;" horiz-adv-x="1955" d="M-12 0q80 231 149.5 381.5t133 230.5t111.5 115t118 59q-131 115 -482 641h320q266 -424 504 -679v679h270v-679q246 268 506 679h317q-340 -516 -479 -641q92 -35 154.5 -88t157 -224t200.5 -474h-313q-94 270 -176 413.5t-164 199t-203 67.5v-680h-270v680 q-182 -18 -295 -153.5t-248 -526.5h-311z" />
<glyph unicode="&#x417;" horiz-adv-x="1314" d="M102 23l52 235q152 -43 385 -43q203 0 278.5 45t75.5 162q0 119 -61.5 166t-202.5 47h-234v229h228q137 0 190 39t53 144q0 100 -66.5 137t-260.5 37q-225 0 -375 -45l-53 233q250 53 481 53q309 0 435 -84t126 -280q0 -158 -61.5 -242t-239.5 -100q190 -8 262 -101.5 t72 -269.5q0 -227 -141.5 -320.5t-452.5 -93.5q-261 1 -490 52z" />
<glyph unicode="&#x418;" horiz-adv-x="1585" d="M180 0v1427h266v-1077q377 606 631 1077h326v-1427h-264v1032q-313 -578 -604 -1032h-355z" />
<glyph unicode="&#x419;" horiz-adv-x="1585" d="M180 0v1427h266v-1077q377 606 631 1077h326v-1427h-264v1032q-313 -578 -604 -1032h-355zM487 1784h175q0 -70 31.5 -94.5t103 -24.5t104.5 25.5t33 93.5h164q0 -281 -307 -281q-304 0 -304 281z" />
<glyph unicode="&#x41a;" horiz-adv-x="1359" d="M180 0v1427h271v-688q104 100 258.5 287.5t300.5 400.5h327q-180 -254 -319 -421.5t-203 -219.5q59 -20 100 -42.5t97.5 -76t107.5 -133t115.5 -214t136.5 -320.5h-321q-100 268 -192.5 413.5t-182.5 199t-225 65.5v-678h-271z" />
<glyph unicode="&#x41b;" horiz-adv-x="1490" d="M63 0q262 797 289 1427h959v-1427h-267v1194h-444q-47 -608 -252 -1194h-285z" />
<glyph unicode="&#x41c;" horiz-adv-x="1875" d="M180 0v1427h369q205 -422 401 -913q166 440 396 913h350v-1427h-264v1063q-168 -369 -398 -932h-211q-266 676 -383 932v-1063h-260z" />
<glyph unicode="&#x41d;" horiz-adv-x="1507" d="M180 0v1427h271v-544h610v544h266v-1427h-266v633h-610v-633h-271z" />
<glyph unicode="&#x41e;" horiz-adv-x="1576" d="M109 727q0 215 40.5 359.5t130 226.5t210 115.5t299 33.5t299 -33.5t208.5 -115.5t129 -226.5t41 -359.5q0 -219 -41 -366.5t-129 -232.5t-209.5 -121t-298.5 -36q-178 0 -299.5 36t-210 121t-129 232.5t-40.5 366.5zM397 723q0 -133 11.5 -219t36 -145.5t72.5 -89 t110.5 -42t161 -12.5t161 12.5t110.5 42t72.5 89t36 145.5t11.5 219q0 166 -15.5 260t-63.5 148.5t-118 71t-194.5 16.5t-194.5 -16.5t-118 -71t-63.5 -148.5t-15.5 -260z" />
<glyph unicode="&#x41f;" horiz-adv-x="1507" d="M180 0v1427h1147v-1427h-266v1194h-610v-1194h-271z" />
<glyph unicode="&#x420;" horiz-adv-x="1378" d="M180 0v1427h744q397 0 397 -489q0 -201 -98.5 -334t-292.5 -133h-479v-471h-271zM451 696h397q176 0 176 244q0 258 -170 258h-403v-502z" />
<glyph unicode="&#x421;" horiz-adv-x="1212" d="M109 727q0 217 39.5 360.5t126.5 226.5t206 115.5t297 32.5q217 0 410 -53l-60 -238q-125 45 -303 46q-129 0 -200.5 -15.5t-128 -67t-78 -148.5t-21.5 -261t21.5 -263.5t77 -153.5t129 -71.5t200.5 -17.5q178 0 303 45l60 -241q-184 -51 -410 -52q-236 0 -377 66.5 t-216.5 234.5t-75.5 455z" />
<glyph unicode="&#x422;" horiz-adv-x="1247" d="M6 1194v233h1235v-233h-481v-1194h-273v1194h-481z" />
<glyph unicode="&#x423;" horiz-adv-x="1255" d="M-31 1427h322q209 -379 354 -772q231 471 336 772h305q-137 -350 -332.5 -744t-373.5 -683h-340q135 180 237 362q-76 209 -229.5 534.5t-278.5 530.5z" />
<glyph unicode="&#x424;" horiz-adv-x="1636" d="M74 716.5q0 274.5 126 395.5t468 137v178h268v-178q348 -16 480 -138t132 -394q0 -274 -132 -396t-480 -139v-182h-268v182q-342 16 -468 138t-126 396.5zM344 715q0 -172 61.5 -237.5t262.5 -74.5v623q-203 -8 -263.5 -72.5t-60.5 -238.5zM936 403q111 4 177.5 20.5 t102 57.5t47 93.5t11.5 140.5q0 178 -62.5 242.5t-275.5 70.5v-625z" />
<glyph unicode="&#x425;" horiz-adv-x="1380" d="M-8 0q209 260 545 721q-332 446 -537 706h346q152 -195 359 -471q199 276 327 471h332q-215 -315 -494 -700q367 -508 516 -727h-335q-201 289 -349 494q-260 -342 -378 -494h-332z" />
<glyph unicode="&#x426;" horiz-adv-x="1583" d="M180 0v1427h271v-1183h610v1183h266v-1183h256l-45 -559h-235v315h-1123z" />
<glyph unicode="&#x427;" horiz-adv-x="1366" d="M51 895v532h271v-514q0 -162 64.5 -215t234.5 -53q137 0 215.5 34t78.5 97v651h271v-1427h-271v459q-115 -66 -348 -66q-123 0 -210 20.5t-159.5 74t-109.5 154.5t-37 253z" />
<glyph unicode="&#x428;" horiz-adv-x="1994" d="M180 0v1427h271v-1183h413v1183h269v-1183h413v1183h269v-1427h-1635z" />
<glyph unicode="&#x429;" horiz-adv-x="2068" d="M180 0v1427h271v-1183h413v1183h269v-1183h413v1183h269v-1183h253l-43 -559h-237v315h-1608z" />
<glyph unicode="&#x42a;" horiz-adv-x="1476" d="M35 1194v233h485v-507h498q199 0 291 -126t92 -335t-90 -334t-281 -125h-780v1194h-215zM520 227h434q154 0 154 232q0 236 -160 235h-428v-467z" />
<glyph unicode="&#x42b;" horiz-adv-x="1914" d="M180 0v1427h271v-507h497q199 0 291 -126t92 -335q0 -459 -370 -459h-781zM451 227h434q154 0 153 232q0 236 -159 235h-428v-467zM1464 0v1427h271v-1427h-271z" />
<glyph unicode="&#x42c;" horiz-adv-x="1406" d="M180 0v1427h271v-507h497q199 0 291 -126t92 -335q0 -459 -370 -459h-781zM451 227h434q154 0 153 232q0 236 -159 235h-428v-467z" />
<glyph unicode="&#x42d;" horiz-adv-x="1261" d="M53 23l60 241q125 -45 313 -45q115 0 186.5 15.5t129 59.5t84 127t32.5 214h-610v229h608q-10 115 -39 185.5t-86 107.5t-124.5 48.5t-180.5 11.5q-188 0 -313 -46l-60 238q193 53 420 53q178 0 299 -32.5t210 -114.5t130 -226.5t41 -361.5q0 -422 -163 -589t-517 -167 q-236 1 -420 52z" />
<glyph unicode="&#x42e;" horiz-adv-x="1978" d="M180 0v1427h271v-544h315q23 324 159 451.5t392 127.5q188 0 304 -60.5t182.5 -223t66.5 -445.5q0 -217 -36 -365.5t-108.5 -235.5t-171 -124t-237.5 -37q-262 0 -400.5 149.5t-152.5 512.5h-313v-633h-271zM1040 733q0 -215 28 -326.5t84 -151.5t165 -40 q164 0 219 100.5t55 417.5q0 133 -9 218t-25.5 140.5t-51.5 83t-77 38t-111 10.5q-68 0 -109 -10.5t-76.5 -38t-54 -83t-28 -141.5t-9.5 -217z" />
<glyph unicode="&#x42f;" horiz-adv-x="1445" d="M55 0q90 256 162 388t131.5 177t151.5 60q-375 14 -375 387q0 416 397 415h744v-1427h-271v545h-227q-90 0 -147.5 -37t-121 -157t-132.5 -351h-312zM426 977q0 -209 166 -209h403v430h-409q-160 0 -160 -221z" />
<glyph unicode="&#x430;" horiz-adv-x="1146" d="M100 319q0 205 101.5 274t308.5 69q121 0 258 -29q0 137 -49 180t-211 43q-184 0 -315 -47l-48 209q209 55 416 55q240 0 345.5 -89t105.5 -316v-615q-209 -82 -471 -82q-250 0 -345.5 72.5t-95.5 275.5zM367 330q0 -104 36.5 -134t155.5 -30q109 0 209 35v260 q-86 18 -207 18q-115 0 -154.5 -26.5t-39.5 -122.5z" />
<glyph unicode="&#x431;" horiz-adv-x="1177" d="M111 602q0 205 18 344t53 229.5t101.5 141.5t142.5 72.5t197 31.5q250 20 391 80v-225q-104 -47 -379 -72q-147 -12 -197.5 -77.5t-70.5 -221.5q90 123 282 123q215 0 318.5 -113.5t103.5 -408.5q0 -303 -116.5 -419t-383.5 -116q-117 0 -196.5 27t-142 95.5t-92 194.5 t-29.5 314zM369 501.5q0 -182.5 49 -252t160 -69.5q94 0 140 20.5t69.5 90t23.5 211.5q0 184 -47 245.5t-172 61.5q-135 0 -179 -62.5t-44 -245z" />
<glyph unicode="&#x432;" horiz-adv-x="1187" d="M141 0v1042h629q166 0 228.5 -62t62.5 -187q0 -113 -49 -171.5t-189 -68.5q147 -4 204.5 -72.5t57.5 -195.5q0 -285 -307 -285h-637zM395 197h312q59 0 85.5 27.5t26.5 90.5q0 135 -119 136h-305v-254zM395 637h301q53 0 77 25.5t24 80.5q0 59 -22.5 81t-78.5 22h-301 v-209z" />
<glyph unicode="&#x433;" horiz-adv-x="868" d="M141 0v1042h725v-221h-471v-821h-254z" />
<glyph unicode="&#x434;" horiz-adv-x="1329" d="M8 221h187q123 428 145 821h778v-821h201l-59 -510h-203v289h-787v-289h-204zM461 221h403v600h-293q-20 -262 -110 -600z" />
<glyph unicode="&#x435;" horiz-adv-x="1130" d="M104 526q0 299 122 423t364 124q131 0 214 -25.5t142.5 -94t82 -189.5t15.5 -309h-673q2 -160 63.5 -214.5t206.5 -54.5q150 0 293 43l41 -200q-172 -57 -365 -58q-244 0 -375 126t-131 429zM373 649h438q-6 135 -50 179t-157 44q-121 0 -170 -47t-61 -176z" />
<glyph unicode="&#x436;" horiz-adv-x="1636" d="M4 0q94 215 174 340t124 162t106 61q-47 39 -151.5 167t-227.5 312h293q221 -319 368 -495v495h254v-495q143 168 371 495h293q-127 -184 -230.5 -312t-148.5 -167q45 -18 77.5 -41.5t83 -81t110 -167t130.5 -273.5h-289q-113 248 -207 352.5t-190 130.5v-483h-254v483 q-96 -27 -190 -131t-205 -352h-291z" />
<glyph unicode="&#x437;" horiz-adv-x="1056" d="M63 10l54 228q141 -49 327 -50q145 0 194.5 30t49.5 108q0 72 -52 100.5t-173 28.5h-160v190h160q115 0 159 21.5t44 83.5q0 59 -46.5 82.5t-175.5 23.5q-178 0 -319 -45l-53 221q178 41 377 41q272 0 377.5 -59.5t105.5 -208.5q0 -117 -54.5 -179.5t-195.5 -74.5 q150 -8 213 -78t63 -197q0 -174 -115.5 -239.5t-393.5 -65.5q-214 0 -386 39z" />
<glyph unicode="&#x438;" horiz-adv-x="1214" d="M141 0v1042h254v-663q178 225 424 663h254v-1042h-254v637q-172 -311 -424 -637h-254z" />
<glyph unicode="&#x439;" horiz-adv-x="1214" d="M141 0v1042h254v-663q178 225 424 663h254v-1042h-254v637q-172 -311 -424 -637h-254zM301 1427h174q0 -70 32 -94t105 -24q63 0 100.5 26.5t35.5 91.5h163q0 -281 -305 -281t-305 281z" />
<glyph unicode="&#x43a;" horiz-adv-x="1128" d="M141 0v1042h254v-501q152 166 404 501h301q-299 -401 -395 -477q61 -25 107 -62.5t127 -161.5t185 -341h-297q-123 258 -221 358.5t-211 124.5v-483h-254z" />
<glyph unicode="&#x43b;" horiz-adv-x="1171" d="M68 0q152 487 182 1042h778v-1042h-254v821h-282q-35 -430 -158 -821h-266z" />
<glyph unicode="&#x43c;" horiz-adv-x="1542" d="M141 0v1042h371q121 -252 270 -620q121 317 265 620h354v-1042h-252v760q-137 -297 -287 -699h-190q-174 473 -279 699v-760h-252z" />
<glyph unicode="&#x43d;" horiz-adv-x="1202" d="M141 0v1042h254v-383h410v383h254v-1042h-254v442h-410v-442h-254z" />
<glyph unicode="&#x43e;" horiz-adv-x="1204" d="M104 526q0 307 119 427t377 120q262 0 381 -119.5t119 -427.5q0 -311 -119 -433t-381 -122q-260 0 -378 122t-118 433zM367 522q0 -211 48 -277.5t185 -66.5q141 0 189.5 66.5t48.5 277.5q0 150 -22.5 223.5t-70 97t-145.5 23.5q-139 0 -186 -63.5t-47 -280.5z" />
<glyph unicode="&#x43f;" horiz-adv-x="1202" d="M141 0v1042h918v-1042h-254v821h-410v-821h-254z" />
<glyph unicode="&#x440;" horiz-adv-x="1204" d="M141 -393v1388q186 78 457 78q266 0 383 -119.5t117 -431.5q0 -303 -115 -427t-338 -124q-131 0 -250 60v-424h-254zM395 287q0 -45 59.5 -73t145.5 -28q135 0 186.5 70t51.5 260q0 209 -50.5 273.5t-189.5 64.5q-123 0 -203 -31v-536z" />
<glyph unicode="&#x441;" horiz-adv-x="962" d="M104 526q0 303 131.5 425t385.5 122q184 0 317 -49l-57 -217q-121 45 -242 45q-100 0 -154.5 -21.5t-86 -94t-31.5 -214.5q0 -197 62.5 -263t209.5 -66q121 0 242 49l57 -217q-133 -53 -317 -54q-254 0 -385.5 125t-131.5 430z" />
<glyph unicode="&#x442;" horiz-adv-x="993" d="M10 821v221h973v-221h-360v-821h-254v821h-359z" />
<glyph unicode="&#x443;" horiz-adv-x="1046" d="M0 1042h264q139 -348 258 -790q174 463 258 790h258q-147 -502 -395 -1085q-86 -205 -162 -350h-282q76 135 170 342q-170 612 -369 1093z" />
<glyph unicode="&#x444;" horiz-adv-x="1720" d="M106 522q0 311 104.5 431t354.5 120q70 0 168 -20v399h254v-399q96 20 168 20q250 0 354.5 -119.5t104.5 -431.5q0 -303 -103.5 -427t-308.5 -124q-125 0 -215 60v-424h-254v424q-94 -59 -215 -60q-207 0 -309.5 124t-102.5 427zM356 516q0 -188 47.5 -259t159.5 -71 q76 0 123 27t47 72v542q-78 27 -168 27q-119 0 -164 -65.5t-45 -272.5zM987 281q2 -45 48 -70t122 -25q111 0 159 71t48 259q0 207 -45 272.5t-164 65.5q-94 0 -168 -27v-546z" />
<glyph unicode="&#x445;" horiz-adv-x="1067" d="M12 0q158 184 406 520q-231 322 -404 522h303q109 -135 240 -319q82 113 215 319h283q-154 -231 -359 -514q201 -283 361 -528h-287q-76 125 -219 330q-131 -178 -256 -330h-283z" />
<glyph unicode="&#x446;" horiz-adv-x="1302" d="M141 0v1042h254v-821h410v821h254v-821h233l-59 -510h-205v289h-887z" />
<glyph unicode="&#x447;" horiz-adv-x="1138" d="M78 788v254h254v-233q0 -158 49 -211t162 -53q82 0 140 24.5t58 67.5v405h254v-1042h-254v387q-135 -72 -286 -72q-131 0 -208 36t-123 141.5t-46 295.5z" />
<glyph unicode="&#x448;" horiz-adv-x="1757" d="M141 0v1042h254v-821h357v821h254v-821h354v821h254v-1042h-1473z" />
<glyph unicode="&#x449;" horiz-adv-x="1857" d="M141 0v1042h254v-821h357v821h254v-821h354v821h254v-821h233q-10 -86 -29.5 -256t-29.5 -254h-205v289h-1442z" />
<glyph unicode="&#x44a;" horiz-adv-x="1251" d="M10 821v221h455v-376h366q324 0 324 -330q0 -180 -80 -258t-244 -78h-620v821h-201zM465 188h307q117 0 117 144q0 74 -30 105.5t-91 31.5h-303v-281z" />
<glyph unicode="&#x44b;" horiz-adv-x="1589" d="M141 0v1042h254v-376h367q324 0 323 -330q0 -180 -79.5 -258t-243.5 -78h-621zM395 188h307q117 0 117 144q0 74 -29.5 105.5t-91.5 31.5h-303v-281zM1194 0v1042h254v-1042h-254z" />
<glyph unicode="&#x44c;" horiz-adv-x="1181" d="M141 0v1042h254v-376h367q324 0 323 -330q0 -180 -79.5 -258t-243.5 -78h-621zM395 188h307q117 0 117 144q0 74 -29.5 105.5t-91.5 31.5h-303v-281z" />
<glyph unicode="&#x44d;" horiz-adv-x="985" d="M49 25l55 202q106 -43 246 -43q129 0 192.5 57.5t71.5 213.5h-415v194h411q-16 123 -77.5 166t-182.5 43q-150 0 -246 -39l-55 205q133 49 318 49q248 0 381 -123t133 -424q0 -303 -133.5 -429t-380.5 -126q-185 1 -318 54z" />
<glyph unicode="&#x44e;" horiz-adv-x="1736" d="M141 0v1042h254v-383h269q25 229 140.5 321.5t338.5 92.5q254 0 371.5 -119.5t117.5 -427.5q0 -309 -117.5 -432t-371.5 -123q-233 0 -349 104.5t-132 366.5h-267v-442h-254zM918 522q0 -211 47 -278.5t178 -67.5q133 0 181 67.5t48 278.5q0 217 -47 281.5t-182 64.5 q-131 0 -178 -64.5t-47 -281.5z" />
<glyph unicode="&#x44f;" horiz-adv-x="1214" d="M51 0q106 260 181 347t190 104q-156 6 -226.5 84.5t-70.5 201.5q0 305 330 305h618v-1042h-254v371h-157q-106 0 -171 -71t-149 -300h-291zM399 707q0 -135 129 -136h291v267h-297q-61 0 -92 -29.5t-31 -101.5z" />
<glyph unicode="&#x450;" horiz-adv-x="1130" d="M182 1460h271l250 -264h-226zM104 526q0 299 122 423t364 124q131 0 214 -25.5t142.5 -94t82 -189.5t15.5 -309h-673q2 -160 63.5 -214.5t206.5 -54.5q150 0 293 43l41 -200q-172 -57 -365 -58q-244 0 -375 126t-131 429zM373 649h438q-6 135 -50 179t-157 44 q-121 0 -170 -47t-61 -176z" />
<glyph unicode="&#x451;" horiz-adv-x="1130" d="M104 526q0 299 122 423t364 124q131 0 214 -25.5t142.5 -94t82 -189.5t15.5 -309h-673q2 -160 63.5 -214.5t206.5 -54.5q150 0 293 43l41 -200q-172 -57 -365 -58q-244 0 -375 126t-131 429zM252 1282q0 72 24.5 92.5t96 20.5t97.5 -20.5t26 -92.5q0 -78 -26 -102.5 t-97.5 -24.5t-96 23.5t-24.5 103.5zM373 649h438q-6 135 -50 179t-157 44q-121 0 -170 -47t-61 -176zM688 1282q0 72 24.5 92.5t98.5 20.5q72 0 96.5 -20.5t24.5 -92.5q0 -78 -25.5 -102.5t-95.5 -24.5q-74 0 -98.5 23.5t-24.5 103.5z" />
<glyph unicode="&#x452;" horiz-adv-x="1179" d="M37 1190v178h104v111h254v-111h211v-178h-211v-213q125 72 287 72q104 0 172 -24t121 -88.5t76.5 -183t23.5 -300.5q0 -346 -96 -552t-229 -276l-181 174q109 59 172.5 203.5t63.5 441.5q0 160 -21.5 239t-62.5 103.5t-125 24.5q-80 0 -138.5 -23.5t-62.5 -64.5v-723 h-254v1190h-104z" />
<glyph unicode="&#x453;" horiz-adv-x="868" d="M141 0v1042h725v-219h-471v-823h-254zM330 1163l248 264h272l-297 -264h-223z" />
<glyph unicode="&#x454;" horiz-adv-x="985" d="M104 526q0 301 133.5 424t380.5 123q184 0 318 -49l-55 -205q-96 39 -246 39q-121 0 -182.5 -43t-77.5 -166h411v-194h-415q8 -156 71.5 -213.5t192.5 -57.5q139 0 246 43l55 -202q-133 -53 -315 -54q-250 0 -383.5 126t-133.5 429z" />
<glyph unicode="&#x455;" horiz-adv-x="1005" d="M92 727q0 190 116 268t331 78q178 0 350 -57l-55 -199q-152 49 -304 49q-104 0 -146 -22.5t-42 -98.5q0 -53 44 -76.5t171 -35.5q195 -20 279 -90t84 -224q0 -193 -115 -270.5t-332 -77.5t-373 56l54 200q139 -49 309 -49q113 0 159 24.5t46 102.5q0 57 -46.5 85 t-177.5 40q-182 14 -267 78.5t-85 218.5z" />
<glyph unicode="&#x456;" horiz-adv-x="536" d="M123 1352q0 78 29.5 101.5t117.5 23.5q86 0 116 -23.5t30 -101.5q0 -88 -30 -115t-116 -27q-88 0 -117.5 27t-29.5 115zM141 0v1042h254v-1042h-254z" />
<glyph unicode="&#x457;" horiz-adv-x="536" d="M-72 1282q0 72 24.5 92.5t96.5 20.5t97.5 -20.5t25.5 -92.5q0 -78 -25.5 -102.5t-97.5 -24.5t-96.5 23.5t-24.5 103.5zM141 0v1042h254v-1042h-254zM365 1282q0 72 24.5 92.5t97.5 20.5q72 0 96.5 -20.5t24.5 -92.5q0 -78 -25.5 -102.5t-95.5 -24.5q-74 0 -98 23.5 t-24 103.5z" />
<glyph unicode="&#x458;" horiz-adv-x="536" d="M-33 -205q90 0 132 38t42 138v1071h254v-1065q0 -223 -102.5 -308t-325.5 -85v211zM123 1352q0 78 29.5 101.5t117.5 23.5q86 0 116 -23.5t30 -101.5q0 -88 -30 -115t-116 -27q-88 0 -117.5 27t-29.5 115z" />
<glyph unicode="&#x459;" horiz-adv-x="1814" d="M68 0q152 487 182 1042h778v-376h367q324 0 323 -330q0 -180 -79.5 -258t-243.5 -78h-621v821h-282q-35 -430 -158 -821h-266zM1028 188h307q117 0 117 144q0 74 -29.5 105.5t-91.5 31.5h-303v-281z" />
<glyph unicode="&#x45a;" horiz-adv-x="1845" d="M141 0v1042h254v-376h410v376h254v-376h366q324 0 324 -330q0 -180 -80 -258t-244 -78h-620v469h-410v-469h-254zM1059 188h307q117 0 117 146q0 74 -30 104.5t-91 30.5h-303v-281z" />
<glyph unicode="&#x45b;" horiz-adv-x="1193" d="M37 1190v178h104v111h254v-111h211v-178h-211v-189q139 72 287 72q131 0 208 -36t123 -141t46 -296v-600h-254v580q0 158 -49 211t-160 53q-84 0 -142.5 -24.5t-58.5 -67.5v-752h-254v1190h-104z" />
<glyph unicode="&#x45c;" horiz-adv-x="1128" d="M141 0v1042h254v-501q152 166 404 501h301q-299 -401 -395 -477q61 -25 107 -62.5t127 -161.5t185 -341h-297q-123 258 -221 358.5t-211 124.5v-483h-254zM438 1163l248 264h272l-296 -264h-224z" />
<glyph unicode="&#x45d;" horiz-adv-x="1214" d="M198 1460h271l250 -264h-226zM141 0v1042h254v-663q178 225 424 663h254v-1042h-254v637q-172 -311 -424 -637h-254z" />
<glyph unicode="&#x45e;" horiz-adv-x="1046" d="M0 1042h264q139 -348 258 -790q174 463 258 790h258q-147 -502 -395 -1085q-86 -205 -162 -350h-282q76 135 170 342q-170 612 -369 1093zM219 1432h174q0 -70 32 -94.5t103.5 -24.5t104.5 25.5t33 93.5h163q0 -281 -307 -281q-303 0 -303 281z" />
<glyph unicode="&#x45f;" horiz-adv-x="1202" d="M141 0v1042h254v-821h410v821h254v-1042h-320l-43 -365h-180l-43 365h-332z" />
<glyph unicode="&#x490;" horiz-adv-x="1114" d="M180 0v1427h717l68 365h180v-598h-694v-1194h-271z" />
<glyph unicode="&#x491;" horiz-adv-x="868" d="M141 0v1042h504l62 336h159v-557h-471v-821h-254z" />
<glyph unicode="&#x4ae;" horiz-adv-x="1306" d="M-78 1427h352q182 -227 398 -544q229 307 377 544h327q-268 -403 -575 -811v-616h-271v614q-362 514 -608 813z" />
<glyph unicode="&#x4c0;" horiz-adv-x="630" d="M180 0v1427h271v-1427h-271z" />
<glyph unicode="&#x4c1;" horiz-adv-x="1955" d="M672 1866h174q0 -70 31.5 -94.5t103.5 -24.5t104.5 25.5t32.5 93.5h164q0 -281 -307 -281q-303 0 -303 281zM-12 0q80 231 149.5 381.5t133 230.5t111.5 115t118 59q-131 115 -482 641h320q266 -424 504 -679v679h270v-679q246 268 506 679h317q-340 -516 -479 -641 q92 -35 154.5 -88t157 -224t200.5 -474h-313q-94 270 -176 413.5t-164 199t-203 67.5v-680h-270v680q-182 -18 -295 -153.5t-248 -526.5h-311z" />
<glyph unicode="&#x4c2;" horiz-adv-x="1636" d="M512 1476h174q0 -70 31.5 -94t103 -24t104.5 25.5t33 92.5h164q0 -281 -307 -280q-303 -1 -303 280zM4 0q94 215 174 340t124 162t106 61q-47 39 -151.5 167t-227.5 312h293q221 -319 368 -495v495h254v-495q143 168 371 495h293q-127 -184 -230.5 -312t-148.5 -167 q45 -18 77.5 -41.5t83 -81t110 -167t130.5 -273.5h-289q-113 248 -207 352.5t-190 130.5v-483h-254v483q-96 -27 -190 -131t-205 -352h-291z" />
<glyph unicode="&#x4d0;" horiz-adv-x="1396" d="M404 1866h174q0 -70 31.5 -94.5t103.5 -24.5t104.5 25.5t32.5 93.5h164q0 -281 -307 -281q-303 0 -303 281zM-18 0q219 698 516 1427h424q262 -825 514 -1427h-299q-90 225 -138 356h-624q-47 -145 -111 -356h-282zM446 588h476q-111 313 -199 610h-55 q-101 -260 -222 -610z" />
<glyph unicode="&#x4d1;" horiz-adv-x="1146" d="M256 1476h174q0 -70 31.5 -94t103 -24t104.5 25.5t33 92.5h164q0 -281 -307 -280q-303 -1 -303 280zM100 319q0 205 101.5 274t308.5 69q121 0 258 -29q0 137 -49 180t-211 43q-184 0 -315 -47l-48 209q209 55 416 55q240 0 345.5 -89t105.5 -316v-615q-209 -82 -471 -82 q-250 0 -345.5 72.5t-95.5 275.5zM367 330q0 -104 36.5 -134t155.5 -30q109 0 209 35v260q-86 18 -207 18q-115 0 -154.5 -26.5t-39.5 -122.5z" />
<glyph unicode="&#x4d2;" horiz-adv-x="1396" d="M369 1712q0 72 24.5 92.5t96 20.5t97.5 -20.5t26 -92.5q0 -78 -26 -102.5t-97.5 -24.5t-96 23.5t-24.5 103.5zM805 1712q0 72 24.5 92.5t98.5 20.5q72 0 96.5 -20.5t24.5 -92.5q0 -78 -25.5 -102.5t-95.5 -24.5q-74 0 -98.5 23.5t-24.5 103.5zM-18 0q219 698 516 1427 h424q262 -825 514 -1427h-299q-90 225 -138 356h-624q-47 -145 -111 -356h-282zM446 588h476q-111 313 -199 610h-55q-101 -260 -222 -610z" />
<glyph unicode="&#x4d3;" horiz-adv-x="1146" d="M221 1323q0 72 24.5 92.5t96 20.5t97.5 -20.5t26 -92.5q0 -78 -26 -102.5t-97.5 -24.5t-96 23.5t-24.5 103.5zM657 1323q0 72 24.5 92.5t98.5 20.5q72 0 96.5 -20.5t24.5 -92.5q0 -78 -25.5 -102.5t-95.5 -24.5q-74 0 -98.5 23.5t-24.5 103.5zM100 319q0 205 101.5 274 t308.5 69q121 0 258 -29q0 137 -49 180t-211 43q-184 0 -315 -47l-48 209q209 55 416 55q240 0 345.5 -89t105.5 -316v-615q-209 -82 -471 -82q-250 0 -345.5 72.5t-95.5 275.5zM367 330q0 -104 36.5 -134t155.5 -30q109 0 209 35v260q-86 18 -207 18q-115 0 -154.5 -26.5 t-39.5 -122.5z" />
<glyph unicode="&#x4d4;" horiz-adv-x="1984" d="M-295 0q492 752 1002 1427h1222v-233h-766v-330h455v-229h-455v-402h766v-233h-1034v356h-637q-129 -195 -229 -356h-324zM410 588h485v610h-57q-242 -334 -428 -610z" />
<glyph unicode="&#x4d5;" horiz-adv-x="1777" d="M100 319q0 205 102.5 274t307.5 69q121 0 258 -29q0 139 -48 181t-212 42q-184 0 -315 -47l-48 209q209 55 416 55q262 0 346 -125q90 125 330 125q131 0 214 -25.5t142.5 -94t82 -189.5t16.5 -309h-674q2 -160 63.5 -214.5t206.5 -54.5q150 0 293 43l41 -200 q-172 -57 -365 -58q-197 0 -303 74q-154 -74 -413 -74q-250 0 -345.5 72.5t-95.5 275.5zM369 330q0 -100 34.5 -132t157.5 -32q152 0 244 49q-41 98 -41 246q-84 18 -201 18q-115 0 -154.5 -26.5t-39.5 -122.5zM1020 649h438q-6 135 -50 179t-157 44q-119 0 -169 -46 t-62 -177z" />
<glyph unicode="&#x4d6;" horiz-adv-x="1269" d="M394 1866h174q0 -70 31.5 -94.5t103.5 -24.5t104.5 25.5t32.5 93.5h164q0 -281 -307 -281q-303 0 -303 281zM180 0v1427h1037v-233h-766v-330h546v-231h-546v-400h766v-233h-1037z" />
<glyph unicode="&#x4d7;" horiz-adv-x="1130" d="M285 1476h174q0 -70 31.5 -94t103 -24t104.5 25.5t33 92.5h164q0 -281 -307 -280q-303 -1 -303 280zM104 526q0 299 122 423t364 124q131 0 214 -25.5t142.5 -94t82 -189.5t15.5 -309h-673q2 -160 63.5 -214.5t206.5 -54.5q150 0 293 43l41 -200q-172 -57 -365 -58 q-244 0 -375 126t-131 429zM373 649h438q-6 135 -50 179t-157 44q-121 0 -170 -47t-61 -176z" />
<glyph unicode="&#x4dc;" horiz-adv-x="1955" d="M637 1712q0 72 24.5 92.5t96 20.5t97.5 -20.5t26 -92.5q0 -78 -26 -102.5t-97.5 -24.5t-96 23.5t-24.5 103.5zM1073 1712q0 72 24.5 92.5t98.5 20.5q72 0 96.5 -20.5t24.5 -92.5q0 -78 -25.5 -102.5t-95.5 -24.5q-74 0 -98.5 23.5t-24.5 103.5zM-12 0q80 231 149.5 381.5 t133 230.5t111.5 115t118 59q-131 115 -482 641h320q266 -424 504 -679v679h270v-679q246 268 506 679h317q-340 -516 -479 -641q92 -35 154.5 -88t157 -224t200.5 -474h-313q-94 270 -176 413.5t-164 199t-203 67.5v-680h-270v680q-182 -18 -295 -153.5t-248 -526.5h-311z " />
<glyph unicode="&#x4dd;" horiz-adv-x="1636" d="M479 1323q0 72 24.5 92.5t96 20.5t97.5 -20.5t26 -92.5q0 -78 -26 -102.5t-97.5 -24.5t-96 23.5t-24.5 103.5zM915 1323q0 72 24.5 92.5t98.5 20.5q72 0 96.5 -20.5t24.5 -92.5q0 -78 -25.5 -102.5t-95.5 -24.5q-74 0 -98.5 23.5t-24.5 103.5zM4 0q94 215 174 340 t124 162t106 61q-47 39 -151.5 167t-227.5 312h293q221 -319 368 -495v495h254v-495q143 168 371 495h293q-127 -184 -230.5 -312t-148.5 -167q45 -18 77.5 -41.5t83 -81t110 -167t130.5 -273.5h-289q-113 248 -207 352.5t-190 130.5v-483h-254v483q-96 -27 -190 -131 t-205 -352h-291z" />
<glyph unicode="&#x4de;" horiz-adv-x="1314" d="M252 1712q0 72 24.5 92.5t96 20.5t97.5 -20.5t26 -92.5q0 -78 -26 -102.5t-97.5 -24.5t-96 23.5t-24.5 103.5zM688 1712q0 72 24.5 92.5t98.5 20.5q72 0 96.5 -20.5t24.5 -92.5q0 -78 -25.5 -102.5t-95.5 -24.5q-74 0 -98.5 23.5t-24.5 103.5zM102 23l52 235 q152 -43 385 -43q203 0 278.5 45t75.5 162q0 119 -61.5 166t-202.5 47h-234v229h228q137 0 190 39t53 144q0 100 -66.5 137t-260.5 37q-225 0 -375 -45l-53 233q250 53 481 53q309 0 435 -84t126 -280q0 -158 -61.5 -242t-239.5 -100q190 -8 262 -101.5t72 -269.5 q0 -227 -141.5 -320.5t-452.5 -93.5q-261 1 -490 52z" />
<glyph unicode="&#x4df;" horiz-adv-x="1056" d="M109 1323q0 72 24.5 92.5t96 20.5t97.5 -20.5t26 -92.5q0 -78 -26 -102.5t-97.5 -24.5t-96 23.5t-24.5 103.5zM545 1323q0 72 24.5 92.5t98.5 20.5q72 0 96.5 -20.5t24.5 -92.5q0 -78 -25.5 -102.5t-95.5 -24.5q-74 0 -98.5 23.5t-24.5 103.5zM63 10l54 228 q141 -49 327 -50q145 0 194.5 30t49.5 108q0 72 -52 100.5t-173 28.5h-160v190h160q115 0 159 21.5t44 83.5q0 59 -46.5 82.5t-175.5 23.5q-178 0 -319 -45l-53 221q178 41 377 41q272 0 377.5 -59.5t105.5 -208.5q0 -117 -54.5 -179.5t-195.5 -74.5q150 -8 213 -78t63 -197 q0 -174 -115.5 -239.5t-393.5 -65.5q-214 0 -386 39z" />
<glyph unicode="&#x4e2;" horiz-adv-x="1585" d="M506 1586v184h569v-184h-569zM180 0v1427h266v-1077q377 606 631 1077h326v-1427h-264v1032q-313 -578 -604 -1032h-355z" />
<glyph unicode="&#x4e3;" horiz-adv-x="1214" d="M322 1196v184h569v-184h-569zM141 0v1042h254v-663q178 225 424 663h254v-1042h-254v637q-172 -311 -424 -637h-254z" />
<glyph unicode="&#x4e4;" horiz-adv-x="1585" d="M451 1712q0 72 24.5 92.5t96 20.5t97.5 -20.5t26 -92.5q0 -78 -26 -102.5t-97.5 -24.5t-96 23.5t-24.5 103.5zM887 1712q0 72 24.5 92.5t98.5 20.5q72 0 96.5 -20.5t24.5 -92.5q0 -78 -25.5 -102.5t-95.5 -24.5q-74 0 -98.5 23.5t-24.5 103.5zM180 0v1427h266v-1077 q377 606 631 1077h326v-1427h-264v1032q-313 -578 -604 -1032h-355z" />
<glyph unicode="&#x4e5;" horiz-adv-x="1214" d="M266 1323q0 72 24.5 92.5t96 20.5t97.5 -20.5t26 -92.5q0 -78 -26 -102.5t-97.5 -24.5t-96 23.5t-24.5 103.5zM702 1323q0 72 24.5 92.5t98.5 20.5q72 0 96.5 -20.5t24.5 -92.5q0 -78 -25.5 -102.5t-95.5 -24.5q-74 0 -98.5 23.5t-24.5 103.5zM141 0v1042h254v-663 q178 225 424 663h254v-1042h-254v637q-172 -311 -424 -637h-254z" />
<glyph unicode="&#x4e6;" horiz-adv-x="1576" d="M449 1712q0 72 24.5 92.5t96 20.5t97.5 -20.5t26 -92.5q0 -78 -26 -102.5t-97.5 -24.5t-96 23.5t-24.5 103.5zM885 1712q0 72 24.5 92.5t98.5 20.5q72 0 96.5 -20.5t24.5 -92.5q0 -78 -25.5 -102.5t-95.5 -24.5q-74 0 -98.5 23.5t-24.5 103.5zM109 727q0 215 40.5 359.5 t130 226.5t210 115.5t299 33.5t299 -33.5t208.5 -115.5t129 -226.5t41 -359.5q0 -219 -41 -366.5t-129 -232.5t-209.5 -121t-298.5 -36q-178 0 -299.5 36t-210 121t-129 232.5t-40.5 366.5zM397 723q0 -133 11.5 -219t36 -145.5t72.5 -89t110.5 -42t161 -12.5t161 12.5 t110.5 42t72.5 89t36 145.5t11.5 219q0 166 -15.5 260t-63.5 148.5t-118 71t-194.5 16.5t-194.5 -16.5t-118 -71t-63.5 -148.5t-15.5 -260z" />
<glyph unicode="&#x4e7;" horiz-adv-x="1204" d="M260 1323q0 72 24.5 92.5t96 20.5t97.5 -20.5t26 -92.5q0 -78 -26 -102.5t-97.5 -24.5t-96 23.5t-24.5 103.5zM696 1323q0 72 24.5 92.5t98.5 20.5q72 0 96.5 -20.5t24.5 -92.5q0 -78 -25.5 -102.5t-95.5 -24.5q-74 0 -98.5 23.5t-24.5 103.5zM104 526q0 307 119 427 t377 120q262 0 381 -119.5t119 -427.5q0 -311 -119 -433t-381 -122q-260 0 -378 122t-118 433zM367 522q0 -211 48 -277.5t185 -66.5q141 0 189.5 66.5t48.5 277.5q0 150 -22.5 223.5t-70 97t-145.5 23.5q-139 0 -186 -63.5t-47 -280.5z" />
<glyph unicode="&#x4ec;" horiz-adv-x="1261" d="M133 1712q0 72 24.5 92.5t96 20.5t97.5 -20.5t26 -92.5q0 -78 -26 -102.5t-97.5 -24.5t-96 23.5t-24.5 103.5zM569 1712q0 72 24.5 92.5t98.5 20.5q72 0 96.5 -20.5t24.5 -92.5q0 -78 -25.5 -102.5t-95.5 -24.5q-74 0 -98.5 23.5t-24.5 103.5zM53 23l60 241 q125 -45 313 -45q115 0 186.5 15.5t129 59.5t84 127t32.5 214h-610v229h608q-10 115 -39 185.5t-86 107.5t-124.5 48.5t-180.5 11.5q-188 0 -313 -46l-60 238q193 53 420 53q178 0 299 -32.5t210 -114.5t130 -226.5t41 -361.5q0 -422 -163 -589t-517 -167q-236 1 -420 52z " />
<glyph unicode="&#x4ed;" horiz-adv-x="985" d="M27 1323q0 72 24.5 92.5t96 20.5t97.5 -20.5t26 -92.5q0 -78 -26 -102.5t-97.5 -24.5t-96 23.5t-24.5 103.5zM463 1323q0 72 24.5 92.5t98.5 20.5q72 0 96.5 -20.5t24.5 -92.5q0 -78 -25.5 -102.5t-95.5 -24.5q-74 0 -98.5 23.5t-24.5 103.5zM49 25l55 202 q106 -43 246 -43q129 0 192.5 57.5t71.5 213.5h-415v194h411q-16 123 -77.5 166t-182.5 43q-150 0 -246 -39l-55 205q133 49 318 49q248 0 381 -123t133 -424q0 -303 -133.5 -429t-380.5 -126q-185 1 -318 54z" />
<glyph unicode="&#x4ee;" horiz-adv-x="1255" d="M342 1586v184h569v-184h-569zM-31 1427h322q209 -379 354 -772q231 471 336 772h305q-137 -350 -332.5 -744t-373.5 -683h-340q135 180 237 362q-76 209 -229.5 534.5t-278.5 530.5z" />
<glyph unicode="&#x4ef;" horiz-adv-x="1046" d="M236 1196v184h569v-184h-569zM0 1042h264q139 -348 258 -790q174 463 258 790h258q-147 -502 -395 -1085q-86 -205 -162 -350h-282q76 135 170 342q-170 612 -369 1093z" />
<glyph unicode="&#x4f0;" horiz-adv-x="1255" d="M287 1712q0 72 24.5 92.5t96 20.5t97.5 -20.5t26 -92.5q0 -78 -26 -102.5t-97.5 -24.5t-96 23.5t-24.5 103.5zM723 1712q0 72 24.5 92.5t98.5 20.5q72 0 96.5 -20.5t24.5 -92.5q0 -78 -25.5 -102.5t-95.5 -24.5q-74 0 -98.5 23.5t-24.5 103.5zM-31 1427h322 q209 -379 354 -772q231 471 336 772h305q-137 -350 -332.5 -744t-373.5 -683h-340q135 180 237 362q-76 209 -229.5 534.5t-278.5 530.5z" />
<glyph unicode="&#x4f1;" horiz-adv-x="1046" d="M180 1323q0 72 24.5 92.5t96 20.5t97.5 -20.5t26 -92.5q0 -78 -26 -102.5t-97.5 -24.5t-96 23.5t-24.5 103.5zM616 1323q0 72 24.5 92.5t98.5 20.5q72 0 96.5 -20.5t24.5 -92.5q0 -78 -25.5 -102.5t-95.5 -24.5q-74 0 -98.5 23.5t-24.5 103.5zM0 1042h264 q139 -348 258 -790q174 463 258 790h258q-147 -502 -395 -1085q-86 -205 -162 -350h-282q76 135 170 342q-170 612 -369 1093z" />
<glyph unicode="&#x4f2;" horiz-adv-x="1255" d="M371 1585l186 264h223l-235 -264h-174zM707 1585l186 264h223l-233 -264h-176zM-31 1427h322q209 -379 354 -772q231 471 336 772h305q-137 -350 -332.5 -744t-373.5 -683h-340q135 180 237 362q-76 209 -229.5 534.5t-278.5 530.5z" />
<glyph unicode="&#x4f3;" horiz-adv-x="1046" d="M264 1196l186 264h223l-235 -264h-174zM600 1196l186 264h223l-233 -264h-176zM0 1042h264q139 -348 258 -790q174 463 258 790h258q-147 -502 -395 -1085q-86 -205 -162 -350h-282q76 135 170 342q-170 612 -369 1093z" />
<glyph unicode="&#x4f4;" horiz-adv-x="1366" d="M279 1712q0 72 24.5 92.5t96 20.5t97.5 -20.5t26 -92.5q0 -78 -26 -102.5t-97.5 -24.5t-96 23.5t-24.5 103.5zM715 1712q0 72 24.5 92.5t98.5 20.5q72 0 96.5 -20.5t24.5 -92.5q0 -78 -25.5 -102.5t-95.5 -24.5q-74 0 -98.5 23.5t-24.5 103.5zM51 895v532h271v-514 q0 -162 64.5 -215t234.5 -53q137 0 215.5 34t78.5 97v651h271v-1427h-271v459q-115 -66 -348 -66q-123 0 -210 20.5t-159.5 74t-109.5 154.5t-37 253z" />
<glyph unicode="&#x4f5;" horiz-adv-x="1138" d="M197 1323q0 72 24.5 92.5t96 20.5t97.5 -20.5t26 -92.5q0 -78 -26 -102.5t-97.5 -24.5t-96 23.5t-24.5 103.5zM633 1323q0 72 24.5 92.5t98.5 20.5q72 0 96.5 -20.5t24.5 -92.5q0 -78 -25.5 -102.5t-95.5 -24.5q-74 0 -98.5 23.5t-24.5 103.5zM78 788v254h254v-233 q0 -158 49 -211t162 -53q82 0 140 24.5t58 67.5v405h254v-1042h-254v387q-135 -72 -286 -72q-131 0 -208 36t-123 141.5t-46 295.5z" />
<glyph unicode="&#x4f8;" horiz-adv-x="1914" d="M619 1712q0 72 24.5 92.5t96 20.5t97.5 -20.5t26 -92.5q0 -78 -26 -102.5t-97.5 -24.5t-96 23.5t-24.5 103.5zM1055 1712q0 72 24.5 92.5t98.5 20.5q72 0 96.5 -20.5t24.5 -92.5q0 -78 -25.5 -102.5t-95.5 -24.5q-74 0 -98.5 23.5t-24.5 103.5zM180 0v1427h271v-507h497 q199 0 291 -126t92 -335q0 -459 -370 -459h-781zM451 227h434q154 0 153 232q0 236 -159 235h-428v-467zM1464 0v1427h271v-1427h-271z" />
<glyph unicode="&#x4f9;" horiz-adv-x="1589" d="M455 1323q0 72 24.5 92.5t96 20.5t97.5 -20.5t26 -92.5q0 -78 -26 -102.5t-97.5 -24.5t-96 23.5t-24.5 103.5zM891 1323q0 72 24.5 92.5t98.5 20.5q72 0 96.5 -20.5t24.5 -92.5q0 -78 -25.5 -102.5t-95.5 -24.5q-74 0 -98.5 23.5t-24.5 103.5zM141 0v1042h254v-376h367 q324 0 323 -330q0 -180 -79.5 -258t-243.5 -78h-621zM395 188h307q117 0 117 144q0 74 -29.5 105.5t-91.5 31.5h-303v-281zM1194 0v1042h254v-1042h-254z" />
<glyph unicode="&#x2000;" horiz-adv-x="931" />
<glyph unicode="&#x2001;" horiz-adv-x="1865" />
<glyph unicode="&#x2002;" horiz-adv-x="931" />
<glyph unicode="&#x2003;" horiz-adv-x="1865" />
<glyph unicode="&#x2004;" horiz-adv-x="620" />
<glyph unicode="&#x2005;" horiz-adv-x="464" />
<glyph unicode="&#x2006;" horiz-adv-x="309" />
<glyph unicode="&#x2007;" horiz-adv-x="309" />
<glyph unicode="&#x2008;" horiz-adv-x="231" />
<glyph unicode="&#x2009;" horiz-adv-x="372" />
<glyph unicode="&#x200a;" horiz-adv-x="102" />
<glyph unicode="&#x2010;" horiz-adv-x="622" d="M59 455v241h504v-241h-504z" />
<glyph unicode="&#x2011;" horiz-adv-x="622" d="M59 455v241h504v-241h-504z" />
<glyph unicode="&#x2012;" horiz-adv-x="622" d="M59 455v241h504v-241h-504z" />
<glyph unicode="&#x2013;" horiz-adv-x="1183" d="M100 455v241h983v-241h-983z" />
<glyph unicode="&#x2014;" horiz-adv-x="1771" d="M100 455v241h1571v-241h-1571z" />
<glyph unicode="&#x2018;" horiz-adv-x="522" d="M49 1034l223 537h205l-160 -537h-268z" />
<glyph unicode="&#x2019;" horiz-adv-x="522" d="M47 1024l160 537h268l-223 -537h-205z" />
<glyph unicode="&#x201a;" horiz-adv-x="501" d="M37 -326l160 537h268l-223 -537h-205z" />
<glyph unicode="&#x201c;" horiz-adv-x="921" d="M49 1034l223 537h205l-160 -537h-268zM446 1034l224 537h204l-159 -537h-269z" />
<glyph unicode="&#x201d;" horiz-adv-x="921" d="M47 1026l160 537h268l-223 -537h-205zM444 1026l160 537h268l-223 -537h-205z" />
<glyph unicode="&#x201e;" horiz-adv-x="921" d="M47 -336l160 537h268l-223 -537h-205zM444 -336l160 537h268l-223 -537h-205z" />
<glyph unicode="&#x2026;" horiz-adv-x="2336" d="M289 150q0 90 31.5 116.5t125.5 26.5q98 0 131 -26.5t33 -116.5q0 -98 -33.5 -129t-130.5 -31q-92 0 -124.5 31t-32.5 129zM1006 150q0 90 32.5 116.5t126.5 26.5q96 0 129 -26.5t33 -116.5q0 -98 -33.5 -129t-128.5 -31q-92 0 -125.5 31t-33.5 129zM1726 150 q0 90 33 116.5t125 26.5q98 0 131 -26.5t33 -116.5q0 -98 -34 -129t-130 -31q-92 0 -125 31t-33 129z" />
<glyph unicode="&#x202f;" horiz-adv-x="372" />
<glyph unicode="&#x2039;" horiz-adv-x="808" d="M55 639l553 571l146 -149l-361 -418l361 -426l-144 -154z" />
<glyph unicode="&#x203a;" horiz-adv-x="808" d="M55 215l363 418l-363 428l144 151l557 -573l-553 -573z" />
<glyph unicode="&#x205f;" horiz-adv-x="464" />
<glyph unicode="&#x20ac;" horiz-adv-x="1212" d="M109 727q0 217 39.5 360.5t126.5 226.5t206 115.5t297 32.5q217 0 410 -53l-60 -238q-125 45 -303 46q-184 0 -273 -44.5t-124 -181.5h490v-174h-519q-2 -23 -2 -92q0 -72 2 -92h519v-174h-490q33 -143 123 -191.5t274 -48.5q178 0 303 45l60 -241q-184 -51 -410 -52 q-236 0 -377 66.5t-216.5 234.5t-75.5 455z" />
<glyph unicode="&#x2122;" horiz-adv-x="1687" d="M14 1268v159h648v-159h-232v-576h-182v576h-234zM739 692v735h240l186 -497l181 497h229v-735h-172v512l-178 -483h-142l-172 483v-512h-172z" />
<glyph unicode="&#xe000;" horiz-adv-x="1040" d="M0 1040h1040v-1040h-1040v1040z" />
<glyph horiz-adv-x="661" d="M240 1784h174q0 -70 31.5 -94.5t103.5 -24.5t104.5 25.5t32.5 93.5h164q0 -281 -307 -281q-303 0 -303 281z" />
<glyph horiz-adv-x="544" />
</font>
</defs>
</svg>
